<svg width="26" height="21" viewBox="0 0 26 21" fill="none" xmlns="http://www.w3.org/2000/svg">
<g clip-path="url(#clip0_518_2833)">
<path d="M0 1.65914V6.39682C0 7.83977 1.75822 8.60934 2.83268 7.59928L7.96081 2.8616C9.08412 1.82749 8.35153 -0.000244141 6.81309 -0.000244141H1.68496C0.75701 -0.000244141 0 0.745278 0 1.65914Z" fill="#4F9CF9"/>
<path d="M24.273 -0.000488281H19.1449C17.6308 -0.000488281 16.8738 1.82724 17.9971 2.86136L23.1253 7.59903C24.1997 8.58505 25.958 7.83952 25.958 6.39658V1.6589C25.958 0.745034 25.2009 -0.000488281 24.273 -0.000488281Z" fill="#4F9CF9"/>
<path d="M14.139 11.5674L23.1254 19.8884C24.1999 20.8744 25.9581 20.1289 25.9581 18.6859V13.9001C25.9581 13.4432 25.7628 13.0103 25.4209 12.6977L14.139 2.23632C13.4797 1.63509 12.4785 1.63509 11.8191 2.23632L0.537233 12.6977C0.195357 13.0103 0 13.4432 0 13.9001V18.6859C0 20.1289 1.75822 20.8984 2.83268 19.8884L11.8191 11.5674C12.4785 10.9661 13.4797 10.9661 14.139 11.5674Z" fill="#4F9CF9"/>
</g>
<defs>
<clipPath id="clip0_518_2833">
<rect width="25.9581" height="20.3455" fill="white"/>
</clipPath>
</defs>
</svg>
